<?xml version="1.0" encoding="utf-8"?>
<!-- Designed by Vexels.com - 2020 All Rights Reserved - https://vexels.com/terms-and-conditions/  -->
<svg version="1.1" id="Capa_1" xmlns="http://www.w3.org/2000/svg" xmlns:xlink="http://www.w3.org/1999/xlink" x="0px" y="0px"
	 viewBox="0 0 1200 1200" enable-background="new 0 0 1200 1200" xml:space="preserve">
<g>
	<g>
		<g>
			<g>
				<path fill="#FFD473" d="M146.862,1150c34.829-157.104,69.658-310.11,104.487-463.117s69.658-306.013,104.486-463.117
					c81.599,0,163.197,0,244.796,0s163.197,0,244.796,0c34.829,157.104,69.657,310.11,104.486,463.117
					C984.741,839.89,1019.57,992.896,1054.399,1150c-151.256,0-302.513,0-453.769,0S298.118,1150,146.862,1150z"/>
			</g>
		</g>
	</g>
	<path fill="#F8C13A" d="M957.401,1068.212h-68.266c-21.109,0-38.38-17.269-38.384-38.377
		c-0.007-35.715,54.651-34.286,54.651-69.985c0,0,0-13.58,0-13.58c0-17.377-14.217-31.594-31.594-31.594h-63.158
		c-21.111,0-38.384-17.273-38.384-38.384c0-21.111,17.273-38.384,38.384-38.384h28.443c17.376,0,31.594-14.217,31.594-31.594v-13.58
		c0-17.377-14.217-31.594-31.594-31.594h-59.938c-21.111,0-38.384-17.273-38.384-38.384c0-21.111,17.273-38.384,38.384-38.384
		h24.383c17.376,0,31.594-14.217,31.594-31.594v-13.58c0-17.377-14.217-31.594-31.594-31.594h-24.383
		c-21.111,0-38.384-17.273-38.384-38.384c0-21.111,17.273-38.384,38.384-38.384h12.942c17.376,0,31.594-14.217,31.594-31.594v-13.58
		c0-17.377-14.217-31.594-31.594-31.594H772.02c-21.102,0-38.368-17.257-38.384-38.355c-0.034-45.965,67.675-27.637,67.675-70.338
		c0-0.001,0-13.58,0-13.58c0-17.377-14.217-31.594-31.594-31.594h-20.72c-18.876-2.373-33.612-18.56-33.612-38.052
		c0-21.111,17.273-38.384,38.384-38.384H354.574L145.601,1150h812.237c17.376,0,31.157-19.237,31.157-36.614v-13.58
		C988.994,1082.429,974.777,1068.212,957.401,1068.212z"/>
	<g>
		<g>
			<g>
				<path fill="#FFD473" d="M679.666,188.122H515.318c-6.6,0-12-5.4-12-12V62c0-6.6,5.4-12,12-12h164.348c6.6,0,12,5.4,12,12
					v114.122C691.666,182.722,686.266,188.122,679.666,188.122z"/>
			</g>
		</g>
	</g>
	<g>
		<g>
			<g>
				<path fill="#E19A3D" d="M567.297,142.506c0,0,6.879,28.91,8.716,37.049c2.141,9.486,10.427,18.187,20.731,18.187
					c10.389,0,18.544-8.503,20.731-18.183c1.839-8.14,8.717-37.053,8.717-37.053h-29.448H567.297z"/>
			</g>
		</g>
	</g>
	<g>
		<g>
			<g>
				<path fill="#FFF8EB" d="M991.327,1099.837L910.651,678.93c-0.004-0.018-0.007-0.036-0.011-0.055l-80.638-420.709
					c-0.708-3.697-3.942-6.37-7.707-6.37H376.925c-3.758,0-6.989,2.667-7.704,6.358l-81.384,420.726
					c-0.003,0.014-0.005,0.028-0.008,0.042l-81.419,420.903c-0.448,2.299,0.159,4.678,1.649,6.484
					c1.493,1.809,3.712,2.854,6.054,2.854h769.508c2.339,0,4.558-1.045,6.048-2.848
					C991.162,1104.512,991.769,1102.137,991.327,1099.837z M775.552,313.129c6.352,46.823-10.165,89.919-46.508,121.35
					c-21.015,18.172-47.273,31.486-75.816,38.903c8.751-9.184,14.089-20.414,15.528-32.689h11.408c2.161,0,4.23-0.892,5.711-2.468
					c1.484-1.573,2.253-3.691,2.121-5.849l-9.861-164.884h90.519L775.552,313.129z M595.745,480.036
					c-13.378-0.497-26.487-5.1-36.278-12.894c-6.505-5.181-13.981-13.74-15.959-26.45h109.42
					c-2.037,12.711-9.536,21.266-16.058,26.444c-10.221,8.116-24.028,12.804-37.988,12.967
					C597.834,480.096,596.79,480.059,595.745,480.036z M425.146,313.252l6.937-45.76h88.174l-10.266,164.866
					c-0.135,2.161,0.632,4.283,2.112,5.861c1.484,1.579,3.553,2.474,5.72,2.474h9.862c1.315,11.547,6.083,22.176,13.918,31.047
					c-26.283-7.657-50.418-20.336-69.987-37.264C435.287,403.048,418.788,359.955,425.146,313.252z M671.832,424.997H526.175
					l9.808-157.505h126.431L671.832,424.997z M383.399,267.492h32.809l-6.599,43.525c-7.112,52.256,11.263,100.314,51.737,135.329
					c35.291,30.529,84.066,48.368,134.432,49.386c0.781,0.023,1.559,0.098,2.341,0.098c0.003,0,0.012,0,0.015,0
					c0.248,0,0.495-0.029,0.743-0.031c0.481,0.003,0.959,0.031,1.439,0.031c51.967,0,102.626-18.035,138.989-49.481
					c40.493-35.012,58.886-83.074,51.78-135.449l-6.561-43.408h31.282l77.655,405.141H679.525
					c-2.992-15.202-12.773-28.885-28.166-39.092c-15.386-10.199-34.868-16.048-53.457-16.048c-0.006,0-0.012,0-0.015,0
					c-18.614,0.003-38.126,5.852-53.525,16.045c-15.423,10.201-25.248,23.884-28.288,39.095H305.03L383.399,267.492z
					 M532.195,672.633c3.522-12.225,12.861-20.735,20.827-26.005c12.71-8.412,29.482-13.436,44.865-13.439c0.006,0,0.009,0,0.015,0
					c15.352,0,32.093,5.021,44.782,13.436c7.951,5.27,17.262,13.785,20.731,26.008H532.195z M664.251,688.329
					c-2.359,12.579-12.029,21.217-20.484,26.493c-12.796,7.986-30.45,12.946-46.078,12.949c-0.006,0-0.012,0-0.015,0
					c-15.598,0-33.221-4.96-45.993-12.943c-8.439-5.279-18.085-13.92-20.391-26.499H664.251z M504.553,917.225h-17.384
					c-4.145,0-7.575,3.225-7.833,7.36l-10.519,168.882H306.882l7.027-46.364c7.081-43.549,33.513-80.744,78.555-110.553
					c35.633-23.581,82.655-41.661,133.087-51.3c-5.713,4.739-10.486,10.066-14.115,15.914
					C508.335,906.161,506.052,911.549,504.553,917.225z M717.438,924.604c-0.248-4.145-3.682-7.379-7.832-7.379h-19.469
					c-1.482-5.607-3.759-11.196-6.794-16.447c-3.706-6.405-8.374-12.009-13.534-16.473c51.19,9.155,99.135,27.006,135.745,50.663
					c46.505,30.055,73.73,67.78,80.909,112.049l7.018,46.449H727.541L717.438,924.604z M663.055,932.921h39.159l9.604,160.546
					H484.543l10.001-160.546l37.094-0.177l0.095-64.448c-55.324,9.592-108.785,29.26-147.933,55.164
					c-48.844,32.326-77.571,73.077-85.397,121.209l-7.396,48.798h-67.383l78.369-405.138h213.429
					c1.886,15.641,11.56,29.563,27.937,39.806c15.355,9.601,35.659,15.331,54.313,15.331c0.006,0,0.012,0,0.015,0
					c18.682-0.003,39.012-5.733,54.386-15.328c16.402-10.237,26.119-24.16,28.054-39.809h216.344l77.654,405.138h-64.772
					l-7.385-48.88c-7.82-48.23-38.215-90.695-87.896-122.8c-40.303-26.045-94.976-45.44-151.257-54.446L663.055,932.921z"/>
			</g>
		</g>
	</g>
	<g>
		<path fill="#C53939" d="M628.371,132.497h-62.047c-1.333,0-2.587,0.521-3.538,1.471c-0.944,0.95-1.465,2.204-1.465,3.535
			c0,1.334,0.521,2.587,1.468,3.535c0.947,0.947,2.201,1.468,3.535,1.468h62.047c1.334,0,2.587-0.521,3.535-1.468
			c0.947-0.947,1.468-2.201,1.468-3.535c0-1.33-0.521-2.584-1.468-3.538C630.959,133.018,629.705,132.497,628.371,132.497z"/>
		<path fill="#C53939" d="M662.114,74.769c-3.642-3.645-8.485-5.65-13.639-5.65H546.22c-5.156,0-10,2.008-13.639,5.65
			c-3.645,3.645-5.653,8.489-5.653,13.639v61.388c0,5.15,2.008,9.994,5.65,13.636c3.642,3.645,8.485,5.653,13.642,5.653h8.335
			v-9.417h-8.335c-2.639,0-5.116-1.027-6.98-2.891c-1.867-1.867-2.894-4.347-2.894-6.98V88.408c0-2.633,1.027-5.113,2.897-6.983
			c1.861-1.861,4.338-2.888,6.977-2.888h102.255c2.636,0,5.116,1.027,6.98,2.891c1.864,1.864,2.891,4.344,2.891,6.98v61.388
			c0,2.636-1.027,5.116-2.891,6.98c-1.864,1.864-4.344,2.891-6.98,2.891h-8.335v9.417h8.335c5.153,0,9.997-2.005,13.639-5.65
			c3.645-3.642,5.65-8.485,5.65-13.639V88.408C667.764,83.255,665.759,78.411,662.114,74.769z"/>
	</g>
	<g>
		<g>
			<g>
				<path fill="#DC4545" d="M663.055,875.185v28.076v28.076c0,4.027-1.632,7.672-4.271,10.311
					c-2.639,2.639-6.284,4.271-10.311,4.271h-51.127H546.22c-4.027,0-7.672-1.632-10.311-4.271
					c-2.639-2.639-4.271-6.284-4.271-10.311v-30.693V869.95c0-4.027,1.632-7.672,4.271-10.311c2.639-2.639,6.284-4.271,10.311-4.271
					h51.127h51.127c4.027,0,7.672,1.632,10.311,4.271c2.639,2.639,4.271,6.284,4.271,10.311v2.617V875.185"/>
			</g>
		</g>
	</g>
	<g>
		<g>
			<g>
				<polyline fill="#C53939" points="585.644,900.643 567.297,1126.216 626.193,1126.216 609.947,900.643 				"/>
			</g>
		</g>
	</g>
</g>
</svg>
